<svg xmlns="http://www.w3.org/2000/svg" viewBox="0 0 24 24" width="24" height="24" color="#000000" fill="none">
    <path d="M15.9351 11.3742C15.6807 10.1626 14.327 9.29234 11.6198 7.55189C8.67527 5.65887 7.20297 4.71241 6.01051 5.07706C5.60662 5.20056 5.23462 5.41773 4.9223 5.71235C4 6.58222 4 8.38816 4 12C4 15.6118 4 17.4178 4.9223 18.2876C5.23462 18.5822 5.60662 18.7994 6.01051 18.9229C7.20297 19.2876 8.67527 18.3411 11.6198 16.4481C14.327 14.7077 15.6807 13.8374 15.9351 12.6258C16.0216 12.2135 16.0216 11.7865 15.9351 11.3742Z" stroke="currentColor" stroke-width="1.5" stroke-linejoin="round" />
    <path d="M20 4V20" stroke="currentColor" stroke-width="1.5" stroke-linecap="round" />
</svg>
